<svg xmlns="http://www.w3.org/2000/svg" viewBox="0 0 153.08 165"><defs><style>.cls-1{fill:#fff;}</style></defs><title>Ativo 1</title><g id="Camada_2" data-name="Camada 2"><g id="Layer_1" data-name="Layer 1"><path class="cls-1" d="M16.63,164.24v-14.7a14.13,14.13,0,0,0-.7-5.29A2.86,2.86,0,0,0,13,142.69a4.33,4.33,0,0,0-3,1,6.36,6.36,0,0,0-1.73,2.57v18h-7v-27H6.74l.81,3.57h.22a12.37,12.37,0,0,1,3.16-3,8.65,8.65,0,0,1,4.94-1.3,7.76,7.76,0,0,1,4.24,1.05,6.82,6.82,0,0,1,2.57,3.54,9.82,9.82,0,0,1,3.19-3.35,8.55,8.55,0,0,1,4.7-1.24,12.13,12.13,0,0,1,3.86.54A5.32,5.32,0,0,1,37,138.88a9.05,9.05,0,0,1,1.48,3.54A26.87,26.87,0,0,1,39,148v16.21H32V149.06a12.9,12.9,0,0,0-.68-4.78q-.68-1.59-3-1.59a4.24,4.24,0,0,0-3,1,6.17,6.17,0,0,0-1.65,2.81v17.72Z"/><path class="cls-1" d="M43.48,150.74q0-6.86,3.35-10.56t9.4-3.7a14.11,14.11,0,0,1,5.62,1,10.5,10.5,0,0,1,3.94,2.89,12.36,12.36,0,0,1,2.35,4.51,20.5,20.5,0,0,1,.78,5.84q0,6.86-3.32,10.56T56.23,165a14.1,14.1,0,0,1-5.62-1,10.71,10.71,0,0,1-4-2.89,12.13,12.13,0,0,1-2.38-4.51A20.49,20.49,0,0,1,43.48,150.74Zm7.24,0A15.67,15.67,0,0,0,51,154a9.16,9.16,0,0,0,1,2.65,4.7,4.7,0,0,0,1.7,1.76,4.87,4.87,0,0,0,2.51.62,4.62,4.62,0,0,0,4.11-2q1.35-2,1.35-6.32a12.65,12.65,0,0,0-1.24-6,4.4,4.4,0,0,0-4.21-2.3,4.78,4.78,0,0,0-4.05,1.94Q50.72,146.31,50.72,150.74Z"/><path class="cls-1" d="M71,137.23H74.7v-5.08l7-2v7.08h6.59v5.94H81.73v10.37a10.28,10.28,0,0,0,.57,4,2.13,2.13,0,0,0,2.13,1.22,7,7,0,0,0,1.86-.22,12.57,12.57,0,0,0,1.76-.65l1.24,5.4a17.81,17.81,0,0,1-3.4,1.19,16.25,16.25,0,0,1-3.94.49q-3.73,0-5.48-1.92t-1.76-6.29V143.17H71Z"/><path class="cls-1" d="M114,161.92a13.74,13.74,0,0,1-4.4,2.19,19.24,19.24,0,0,1-5.92.89q-6.54,0-9.56-3.81t-3-10.45q0-7.13,3.4-10.7t9.56-3.57a14.9,14.9,0,0,1,4,.54,9.3,9.3,0,0,1,3.46,1.78,8.79,8.79,0,0,1,2.43,3.35,13.15,13.15,0,0,1,.92,5.24,23.86,23.86,0,0,1-.14,2.43q-.14,1.3-.41,2.7H98.1a7.91,7.91,0,0,0,1.76,5.13q1.59,1.73,5.16,1.73a11.51,11.51,0,0,0,6.65-2.05Zm-10.05-19.83a4.92,4.92,0,0,0-4.08,1.65,8.13,8.13,0,0,0-1.59,4.4h10a6.81,6.81,0,0,0-.89-4.48A4,4,0,0,0,103.93,142.09Zm.16-16.75h7.13V127l-6,6.7h-4Z"/><path class="cls-1" d="M119.44,129.61a3.56,3.56,0,0,1,1.16-2.67,4.47,4.47,0,0,1,3.22-1.11,4.88,4.88,0,0,1,3.32,1.11,3.43,3.43,0,0,1,1.27,2.67,3.28,3.28,0,0,1-1.27,2.62,5,5,0,0,1-3.32,1.05,4.61,4.61,0,0,1-3.22-1.05A3.4,3.4,0,0,1,119.44,129.61Zm1,7.62h7v27h-7Z"/><path class="cls-1" d="M145.53,156.79a2,2,0,0,0-.92-1.73,11.16,11.16,0,0,0-2.27-1.19q-1.35-.54-3-1.11a11.18,11.18,0,0,1-3-1.57,8.59,8.59,0,0,1-2.27-2.54,9,9,0,0,1,1.46-10.08q2.38-2.11,6.86-2.11a22.06,22.06,0,0,1,5.56.65,16.14,16.14,0,0,1,3.89,1.46l-1.57,5.08q-1.24-.48-3.13-1a13.91,13.91,0,0,0-3.84-.54q-3.13,0-3.13,2.43a1.8,1.8,0,0,0,.92,1.57,12.09,12.09,0,0,0,2.27,1.11l3,1.11a12.9,12.9,0,0,1,3,1.54,8.07,8.07,0,0,1,2.27,2.46,7.4,7.4,0,0,1,.92,3.89,8.23,8.23,0,0,1-2.62,6.46q-2.62,2.35-7.86,2.35a19.19,19.19,0,0,1-5.38-.73,16.55,16.55,0,0,1-4.08-1.7l1.94-5.24a18.67,18.67,0,0,0,3.3,1.38,13.37,13.37,0,0,0,4.21.68,4.67,4.67,0,0,0,2.51-.59A2.18,2.18,0,0,0,145.53,156.79Z"/><path class="cls-1" d="M35.14,0a38.8,38.8,0,0,0-14.8,2.67A32.36,32.36,0,0,0,9.28,10.05,31.41,31.41,0,0,0,2.35,21.36,41.73,41.73,0,0,0,0,35.56,35,35,0,0,0,2.85,50.15a31,31,0,0,0,7.41,10.32,30.17,30.17,0,0,0,10.35,6.1,35.16,35.16,0,0,0,11.53,2A33.34,33.34,0,0,0,43.41,67,17.9,17.9,0,0,0,46,65.77a37.67,37.67,0,0,1-2,4.44,34.15,34.15,0,0,1-6.78,9,37.05,37.05,0,0,1-10,6.67A45.06,45.06,0,0,1,14,89.55l-2.56.33,5.18,18.87,1.85-.15a60.36,60.36,0,0,0,20.35-5.35A51.27,51.27,0,0,0,55.91,90.32,62.94,62.94,0,0,0,67.64,69.41C70.52,61.15,72,51.25,72,40c0-12.84-3.31-22.81-9.84-29.65S46.49,0,35.14,0ZM25.82,23.5C28,21,31,19.78,35,19.78a13.39,13.39,0,0,1,6.56,1.51,13.16,13.16,0,0,1,4.54,4.11,19.35,19.35,0,0,1,2.75,6.15,29.22,29.22,0,0,1,.93,7.31,37.77,37.77,0,0,1-.33,4.82,13.92,13.92,0,0,1-4.59,3.48,19.38,19.38,0,0,1-8.58,1.62,14.11,14.11,0,0,1-9.94-3.57c-2.58-2.34-3.84-5.82-3.84-10.64S23.61,26.08,25.82,23.5Z"/><path class="cls-1" d="M143.24,10.35C136.68,3.48,127.59,0,116.23,0a38.8,38.8,0,0,0-14.8,2.67,32.36,32.36,0,0,0-11.05,7.38,31.41,31.41,0,0,0-6.93,11.31,41.73,41.73,0,0,0-2.35,14.2,35,35,0,0,0,2.85,14.59,31,31,0,0,0,7.41,10.32,30.17,30.17,0,0,0,10.35,6.1,35.16,35.16,0,0,0,11.53,2A33.34,33.34,0,0,0,124.5,67a17.9,17.9,0,0,0,2.64-1.21,37.67,37.67,0,0,1-2,4.44,34.15,34.15,0,0,1-6.78,9,37.05,37.05,0,0,1-10,6.67,45.06,45.06,0,0,1-13.35,3.67l-2.56.33,5.18,18.87,1.85-.15a60.36,60.36,0,0,0,20.35-5.35A51.27,51.27,0,0,0,137,90.32a62.94,62.94,0,0,0,11.73-20.91c2.88-8.26,4.34-18.16,4.34-29.42C153.08,27.16,149.77,17.18,143.24,10.35ZM106.92,23.5c2.15-2.51,5.15-3.72,9.17-3.72a13.39,13.39,0,0,1,6.56,1.51,13.16,13.16,0,0,1,4.54,4.11,19.35,19.35,0,0,1,2.75,6.15,29.22,29.22,0,0,1,.93,7.31,37.77,37.77,0,0,1-.33,4.82A13.92,13.92,0,0,1,126,47.15a19.38,19.38,0,0,1-8.58,1.62,14.11,14.11,0,0,1-9.94-3.57c-2.58-2.34-3.84-5.82-3.84-10.64S104.71,26.08,106.92,23.5Z"/></g></g></svg>